# xmcd
#
# Track frame offsets:
#	150
#	16582
#	29268
#	42554
#	60612
#	83382
#	98625
#	119624
#	135197
#	151195
#
# Disc length: 2232 seconds
#
# Revision: 0
# Processed by: cddbd v1.5.2PL0 Copyright (c) Steve Scherf et al.
# Submitted via: EZCDAudioConverter 2.2.2.1
#
DISCID=6908b60a
DTITLE=Grupo Sandim - De Geração Pra Geração
DYEAR=2018
DGENRE=Regional Gaúcha
TTITLE0=Abanando As Franjas Do Pala (Part. Esp. Tchê Barbaridade)
TTITLE1=Bolicho, Baile E Cambicho
TTITLE2=De Geração Pra Geração
TTITLE3=Marca Galponeira
TTITLE4=Patrício
TTITLE5=Gaúcho Lá De Fora (Part. Esp. Os 4 Irmãos)
TTITLE6=Balanço De Vaneira
TTITLE7=Recuerdos De Um Domador
TTITLE8=Capricha No Balanço
TTITLE9=Gaúcho Legendário
EXTD=
EXTT0=
EXTT1=
EXTT2=
EXTT3=
EXTT4=
EXTT5=
EXTT6=
EXTT7=
EXTT8=
EXTT9=
PLAYORDER=
